# xmcd
#
# Track frame offsets: 
#        150
#        10150
#        24108
#        34881
#        49683
#        64812
#        79132
#        97111
#        110030
#        124028
#        138556
#        152063
#        165068
#        181102
#
# Disc length: 2592 seconds
#
# Revision: 1
# Processed by: cddbd v1.5.2PL0 Copyright (c) Steve Scherf et al.
# Submitted via: ExactAudioCopyFreeDBPlugin 1.0
#
DISCID=aa0a1e0e
DTITLE=Bengt Pedersen - Pieces of My Life
DYEAR=2006
DGENRE=Country
TTITLE0=All Nite Cafe
TTITLE1=You Never Know How It's Gonna Go With Love
TTITLE2=Hey Porter
TTITLE3=Somebody's Angel
TTITLE4=It's a Matter of Time
TTITLE5=Seed Catalog
TTITLE6=Sissy Sing That Song
TTITLE7=Lovin' Arms
TTITLE8=Down to My Last Quarter
TTITLE9=When These Days Are Through
TTITLE10=Almost Persuaded
TTITLE11=Pieces of My Life
TTITLE12=It's All Uphill
TTITLE13=Old Rugged Cross
EXTD=
EXTT0=
EXTT1=
EXTT2=
EXTT3=
EXTT4=
EXTT5=
EXTT6=
EXTT7=
EXTT8=
EXTT9=
EXTT10=
EXTT11=
EXTT12=
EXTT13=
PLAYORDER=
